<svg width="37" height="36" viewBox="0 0 37 36" fill="none" xmlns="http://www.w3.org/2000/svg">
<path d="M18.0769 0C8.13461 0 0 8.11183 0 18.1026C0 27.1358 6.61615 34.6334 15.2569 35.9884V23.3418H10.6654V18.1026H15.2569V14.1099C15.2569 9.57522 17.9504 7.08205 22.09 7.08205C24.0604 7.08205 26.1211 7.42531 26.1211 7.42531V11.8877H23.8434C21.6019 11.8877 20.8969 13.2788 20.8969 14.7061V18.1026H25.9223L25.1088 23.3418H20.8969V35.9884C25.1566 35.316 29.0355 33.1438 31.8333 29.8639C34.6311 26.5841 36.1635 22.4126 36.1538 18.1026C36.1538 8.11183 28.0192 0 18.0769 0Z" fill="#59E1A5"/>
</svg>
