<svg width="36" height="36" viewBox="0 0 36 36" fill="none" xmlns="http://www.w3.org/2000/svg">
<path fill-rule="evenodd" clip-rule="evenodd" d="M18.0046 0C13.1146 0 12.5024 0.0215929 10.5813 0.107965C8.66561 0.196136 7.35668 0.500238 6.21159 0.944694C5.00976 1.39607 3.92096 2.10412 3.02117 3.01942C2.10538 3.91872 1.39693 5.00688 0.945242 6.20799C0.500528 7.35242 0.19625 8.6606 0.108028 10.5752C0.019805 12.4952 0 13.107 0 17.9942C0 22.8814 0.019805 23.4932 0.108028 25.4132C0.19625 27.3278 0.500528 28.6359 0.945242 29.7804C1.39698 30.9814 2.10542 32.0696 3.02117 32.9689C3.92103 33.8842 5.00981 34.5922 6.21159 35.0437C7.35668 35.4881 8.66561 35.7922 10.5813 35.8804C12.5024 35.9668 13.1146 35.9884 18.0046 35.9884C22.8947 35.9884 23.5068 35.9668 25.4279 35.8804C27.3436 35.7922 28.6525 35.4881 29.7976 35.0437C30.9994 34.5922 32.0882 33.8842 32.988 32.9689C33.9038 32.0696 34.6123 30.9815 35.064 29.7804C35.5087 28.6359 35.813 27.3278 35.9012 25.4132C35.9876 23.4932 36.0092 22.8814 36.0092 17.9942C36.0092 13.107 35.9876 12.4952 35.9012 10.5752C35.813 8.6606 35.5087 7.35242 35.064 6.20799C34.6123 5.00688 33.9038 3.91872 32.988 3.01942C32.0882 2.10412 30.9994 1.39607 29.7976 0.944694C28.6525 0.500238 27.3436 0.196136 25.4279 0.107965C23.5068 0.0215929 22.8947 0 18.0046 0ZM18.0046 3.24255C22.8118 3.24255 23.3808 3.26054 25.2785 3.34692C27.0357 3.42789 27.9882 3.7194 28.6237 3.96592C29.4627 4.29341 30.0641 4.68388 30.6942 5.31188C31.3244 5.94168 31.7133 6.54268 32.041 7.38121C32.2859 8.01641 32.5811 8.9683 32.6603 10.7227C32.7468 12.6211 32.7648 13.1879 32.7648 17.9942C32.7648 22.7986 32.7468 23.3672 32.6603 25.2638C32.5793 27.0201 32.2859 27.972 32.041 28.6071C31.7523 29.3888 31.2922 30.0959 30.6942 30.6765C30.0641 31.3063 29.4627 31.6949 28.6237 32.0224C27.9882 32.2672 27.0357 32.5623 25.2803 32.6414C23.3826 32.7278 22.8136 32.7458 18.0046 32.7458C13.1974 32.7458 12.6266 32.7278 10.7307 32.6414C8.97349 32.5605 8.02105 32.2672 7.38549 32.0224C6.60334 31.7341 5.89582 31.2741 5.31496 30.6765C4.71695 30.0959 4.25676 29.3888 3.96821 28.6071C3.72155 27.972 3.42808 27.0201 3.34886 25.2656C3.26243 23.3672 3.24443 22.8004 3.24443 17.9942C3.24443 13.1897 3.26243 12.6211 3.34886 10.7245C3.42988 8.9683 3.72155 8.01641 3.96821 7.38121C4.2959 6.54268 4.6866 5.94168 5.31496 5.31188C5.94512 4.68209 6.54647 4.29341 7.38549 3.96592C8.02105 3.7194 8.97349 3.42609 10.7289 3.34692C12.6284 3.26054 13.1956 3.24255 18.0046 3.24255ZM18.0046 23.9916C16.4131 23.9916 14.8867 23.3598 13.7613 22.235C12.6359 21.1103 12.0037 19.5848 12.0037 17.9942C12.0037 16.4036 12.6359 14.8781 13.7613 13.7533C14.8867 12.6286 16.4131 11.9967 18.0046 11.9967C19.5961 11.9967 21.1225 12.6286 22.2479 13.7533C23.3733 14.8781 24.0055 16.4036 24.0055 17.9942C24.0055 19.5848 23.3733 21.1103 22.2479 22.235C21.1225 23.3598 19.5961 23.9916 18.0046 23.9916ZM18.0046 8.75417C16.7905 8.75417 15.5883 8.99317 14.4666 9.45752C13.3449 9.92188 12.3257 10.6025 11.4671 11.4605C10.6086 12.3185 9.92762 13.3371 9.463 14.4582C8.99838 15.5792 8.75924 16.7808 8.75924 17.9942C8.75924 19.2076 8.99838 20.4091 9.463 21.5302C9.92762 22.6512 10.6086 23.6698 11.4671 24.5279C12.3257 25.3859 13.3449 26.0665 14.4666 26.5308C15.5883 26.9952 16.7905 27.2342 18.0046 27.2342C20.4566 27.2342 22.8082 26.2607 24.5421 24.5279C26.2759 22.795 27.25 20.4448 27.25 17.9942C27.25 15.5436 26.2759 13.1933 24.5421 11.4605C22.8082 9.72767 20.4566 8.75417 18.0046 8.75417ZM29.776 8.38889C29.776 8.67245 29.7201 8.95324 29.6115 9.21521C29.503 9.47719 29.3438 9.71523 29.1432 9.91574C28.9426 10.1163 28.7044 10.2753 28.4423 10.3838C28.1801 10.4923 27.8992 10.5482 27.6155 10.5482C27.3317 10.5482 27.0508 10.4923 26.7887 10.3838C26.5265 10.2753 26.2883 10.1163 26.0877 9.91574C25.8871 9.71523 25.7279 9.47719 25.6194 9.21521C25.5108 8.95324 25.4549 8.67245 25.4549 8.38889C25.4549 7.8162 25.6825 7.26698 26.0877 6.86203C26.4929 6.45708 27.0424 6.22958 27.6155 6.22958C28.1885 6.22958 28.738 6.45708 29.1432 6.86203C29.5484 7.26698 29.776 7.8162 29.776 8.38889Z" fill="#59E1A5"/>
</svg>
