<svg width="33" height="36" viewBox="0 0 33 36" fill="none" xmlns="http://www.w3.org/2000/svg">
<path d="M26.2066 5.63818C24.8193 4.07792 24.0547 2.07419 24.0553 0H17.7843V24.792C17.7359 26.1336 17.161 27.4044 16.1805 28.3367C15.2001 29.269 13.8906 29.7902 12.5279 29.7904C9.64609 29.7904 7.25132 27.4711 7.25132 24.592C7.25132 21.1532 10.6202 18.574 14.0906 19.6336V13.3157C7.08896 12.396 0.959961 17.7543 0.959961 24.592C0.959961 31.2499 6.5613 35.9884 12.5076 35.9884C18.8802 35.9884 24.0553 30.89 24.0553 24.592V12.0161C26.5982 13.8152 29.6513 14.7805 32.782 14.7752V8.59722C32.782 8.59722 28.9666 8.77716 26.2066 5.63818Z" fill="#59E1A5"/>
</svg>
